<svg width="559" height="85" viewBox="0 0 559 85" fill="none" xmlns="http://www.w3.org/2000/svg">
<path d="M72.2017 47.5929L39.2467 80.5083C37.7938 81.9595 38.9383 84.4484 40.9837 84.2863C49.7176 83.6053 58.2648 79.9327 64.9451 73.2604C71.6254 66.5882 75.3024 58.0513 75.9842 49.3279C76.1465 47.2767 73.6546 46.1336 72.2017 47.5929Z" fill="#ffffff"/>
<path d="M72.483 30.1094L72.4262 29.9878C70.4781 25.8856 65.0965 24.8884 61.8903 28.0988L19.7388 70.1997C16.5245 73.4102 17.5229 78.7772 21.6301 80.7229L21.7518 80.7797C24.2194 81.939 27.1496 81.3796 29.0815 79.4582L71.1599 37.4303C73.0837 35.5089 73.6437 32.574 72.483 30.1094Z" fill="#ffffff"/>
<path d="M36.745 12.182C38.198 10.7308 37.0535 8.24189 35.008 8.40403C26.2741 9.08504 17.7269 12.7576 11.0466 19.4299C4.36636 26.1021 0.689383 34.639 0.00755599 43.3624C-0.154784 45.4136 2.33711 46.5567 3.79005 45.0974L36.745 12.182Z" fill="#ffffff"/>
<path d="M9.6811 50.4353L4.84341 55.2672C2.89533 57.213 2.37582 60.1721 3.55279 62.661L3.60149 62.7745C5.52521 66.8525 10.923 67.7848 14.113 64.5986L18.9832 59.7343C21.5563 57.1643 21.5563 53.0053 18.9832 50.4353C16.4101 47.8653 12.2461 47.8653 9.67298 50.4353H9.6811Z" fill="#ffffff"/>
<path d="M34.2574 44.4959L56.2787 22.501C59.4687 19.3148 58.5353 13.9316 54.4524 12.0021L54.3388 11.9535C51.8469 10.7779 48.8842 11.2887 46.9361 13.2425L24.9471 35.205C22.3741 37.775 22.3741 41.934 24.9471 44.504C27.5202 47.074 31.6843 47.074 34.2574 44.504V44.4959Z" fill="#ffffff"/>
</svg>
