<svg width="350" height="54" viewBox="0 0 350 54" fill="none" xmlns="http://www.w3.org/2000/svg">
<path d="M62.8524 10.2428H71.138V14.1363C73.816 10.9579 77.6647 9.59567 81.5765 9.59567C90.5816 9.59567 96.3259 17.1216 96.3259 26.3959C96.3259 35.6702 90.4503 43.3267 81.4452 43.3267C77.6594 43.3267 73.942 41.8341 71.5897 38.9792V52.0165H62.8472V10.2428H62.8524ZM87.3892 26.4586C87.3892 21.3335 84.0602 17.6383 79.2977 17.6383C74.8609 17.6383 71.5319 21.2708 71.5319 26.4586C71.5319 31.6464 74.7927 35.2789 79.2977 35.2789C84.0602 35.2789 87.3892 31.5837 87.3892 26.4586Z" fill="#17181C"/>
<path d="M99.6045 26.4631C99.6045 17.1209 105.349 9.60019 114.354 9.60019C118.14 9.60019 122.183 11.0928 124.535 14.2035V10.2474H133.083V42.6788H124.535V38.7854C122.251 41.9012 118.14 43.3261 114.354 43.3261C105.349 43.3261 99.6045 35.8001 99.6045 26.4631ZM124.336 26.4631C124.336 21.4005 121.075 17.6428 116.57 17.6428C112.065 17.6428 108.478 21.4058 108.478 26.4631C108.478 31.5204 111.87 35.2834 116.57 35.2834C121.269 35.2834 124.336 31.6509 124.336 26.4631Z" fill="#17181C"/>
<path d="M139.74 10.2474H148.351V16.4737C149.264 13.8172 152.593 9.60019 159.771 9.60019V19.0729C152.199 19.0729 148.482 22.5122 148.482 30.2313V42.6841H139.74V10.2474Z" fill="#17181C"/>
<path d="M161.98 38.9114L165.115 32.2309C167.335 33.9166 170.402 35.6702 175.295 35.6702C177.318 35.6702 180.647 34.8926 180.647 32.946C180.647 30.9992 177.843 30.5451 175.033 29.7675C168.574 28.0817 163.287 25.9418 163.287 19.7155C163.287 13.0977 169.814 9.59567 175.946 9.59567C181.298 9.59567 184.69 10.8952 188.086 12.8367L185.151 19.3241C181.954 17.7688 178.95 17.0538 176.083 17.0538C174.062 17.0538 172.166 17.9618 172.166 19.3241C172.166 21.1403 174.907 21.7248 177.911 22.3721C183.455 23.6716 189.526 26.0671 189.526 32.685C189.526 40.665 181.366 43.3214 175.301 43.3214C168.317 43.3214 163.818 40.5972 161.99 38.9114H161.98Z" fill="#17181C"/>
<path d="M192.769 26.4586C192.769 17.1164 200.078 9.59567 209.671 9.59567C218.546 9.59567 225.528 17.1217 225.528 26.3281C225.528 27.8834 225.334 29.4439 225.334 29.4439H201.648C202.693 33.9167 206.412 36.0617 210.721 36.0617C213.851 36.0617 217.117 35.1536 219.532 33.5305L222.793 39.7569C219.14 42.1576 214.897 43.3216 210.659 43.3216C201.129 43.3216 192.781 37.1577 192.781 26.4586H192.769ZM217.306 23.6716C216.655 19.5851 213.39 16.8607 209.408 16.8607C205.428 16.8607 202.363 19.5851 201.513 23.6716H217.306Z" fill="#17181C"/>
<path d="M228.706 26.4586C228.706 17.1165 234.45 9.59567 243.454 9.59567C247.24 9.59567 251.284 11.0883 253.636 14.1989V10.2428H262.184V42.6744H253.636V38.7809C251.352 41.8966 247.24 43.3214 243.454 43.3214C234.45 43.3214 228.706 35.7955 228.706 26.4586ZM253.436 26.4586C253.436 21.396 250.176 17.6383 245.67 17.6383C241.165 17.6383 237.579 21.4013 237.579 26.4586C237.579 31.5159 240.971 35.2789 245.67 35.2789C250.37 35.2789 253.436 31.6464 253.436 26.4586Z" fill="#17181C"/>
<path d="M276.579 38.7831V42.6766H268.294V0H277.036V13.8828C279.389 11.0958 283.107 9.60314 286.893 9.60314C295.897 9.60314 301.768 17.129 301.768 26.4661C301.768 35.803 296.023 43.3289 287.018 43.3289C283.101 43.3289 278.99 41.9041 276.579 38.7884V38.7831ZM292.893 26.4608C292.893 21.3983 289.501 17.6405 284.802 17.6405C280.103 17.6405 277.036 21.4035 277.036 26.4608C277.036 31.5181 280.365 35.2811 284.802 35.2811C289.501 35.2811 292.893 31.5859 292.893 26.4608Z" fill="#17181C"/>
<path d="M305.169 0H313.911V42.6766H305.169V0Z" fill="#17181C"/>
<path d="M317.24 26.1357C317.24 16.7935 324.55 9.2728 334.142 9.2728C343.017 9.2728 350 16.7987 350 26.0052C350 27.5606 349.806 29.121 349.806 29.121H326.12C327.164 33.5938 330.882 35.7389 335.187 35.7389C338.322 35.7389 341.583 34.8308 343.999 33.2077L347.26 39.434C343.605 41.8348 339.362 42.9986 335.12 42.9986C325.589 42.9986 317.24 36.8349 317.24 26.1357ZM341.777 23.3486C341.126 19.2621 337.86 16.5379 333.88 16.5379C329.9 16.5379 326.833 19.2621 325.982 23.3486H341.777Z" fill="#17181C"/>
<path d="M38.8493 18.0361C40.5416 16.3412 43.2874 16.3391 44.9823 18.0314C46.6772 19.7237 46.6792 22.4695 44.987 24.1644L18.9416 50.2496C17.2493 51.9444 14.5035 51.9465 12.8086 50.2543C11.1138 48.562 11.1117 45.8161 12.8039 44.1213L38.8493 18.0361Z" fill="#17181C"/>
<path d="M23.8677 7.61058C24.8118 6.6691 24.0788 5.04395 22.755 5.14373C17.1033 5.56238 11.5636 7.93098 7.22267 12.2596C2.88179 16.5883 0.478204 22.1407 0.0115698 27.8232C-0.0994579 29.1593 1.50914 29.9114 2.4533 28.9646L23.8677 7.61058Z" fill="#17181C"/>
<path d="M46.0083 29.7835C46.9541 28.8437 48.5902 29.5698 48.4918 30.8857C48.0793 36.5041 45.7048 42.014 41.3565 46.3353C37.0082 50.6566 31.4258 53.0542 25.7096 53.5267C24.3656 53.6391 23.6065 52.0414 24.5575 51.1014L46.0083 29.7835Z" fill="#17181C"/>
<path d="M17.1422 32.9869L35.6971 14.476C37.7779 12.3684 37.1103 8.86637 34.3911 7.64609L34.3155 7.61544C32.6559 6.87203 30.7005 7.23276 29.4298 8.52515L10.8962 27.0147C9.21773 28.7147 9.25644 31.427 10.9827 33.079C12.709 34.7311 15.4638 34.6922 17.1423 32.9922L17.1422 32.9869Z" fill="#17181C"/>
<path d="M10.4481 37.8931C10.4481 40.1795 8.5507 42.0329 6.21013 42.0329C3.86956 42.0329 1.97215 40.1795 1.97215 37.8931C1.97215 35.6068 3.86956 33.7534 6.21013 33.7534C8.5507 33.7534 10.4481 35.6068 10.4481 37.8931Z" fill="#17181C"/>
</svg>
