<svg width="30" height="30" viewBox="0 0 30 30" fill="none" xmlns="http://www.w3.org/2000/svg">
<path d="M28.3143 15.3711L15.3908 28.2791C14.821 28.8482 15.2699 29.8242 16.072 29.7606C19.4971 29.4936 22.8489 28.0533 25.4686 25.4368C28.0883 22.8202 29.5303 19.4724 29.7977 16.0514C29.8613 15.2471 28.8841 14.7988 28.3143 15.3711Z" fill="#3A3A8C"/>
<path d="M28.4245 8.51542L28.4023 8.46773C27.6383 6.859 25.5279 6.46795 24.2705 7.72695L7.74054 24.2371C6.48002 25.4961 6.87155 27.6008 8.48222 28.3638L8.52996 28.3861C9.49763 28.8407 10.6467 28.6214 11.4043 27.8679L27.9057 11.3863C28.6601 10.6328 28.8797 9.48193 28.4245 8.51542Z" fill="#3A3A8C"/>
<path d="M14.4098 1.48452C14.9796 0.915421 14.5308 -0.0606266 13.7286 0.00295955C10.3036 0.270021 6.95173 1.71025 4.33202 4.32682C1.7123 6.94339 0.270346 10.2912 0.00296313 13.7121C-0.0606995 14.5165 0.916514 14.9648 1.48629 14.3925L14.4098 1.48452Z" fill="#3A3A8C"/>
<path d="M3.79644 16.4854L1.8993 18.3802C1.13535 19.1433 0.931619 20.3037 1.39317 21.2798L1.41227 21.3243C2.16667 22.9235 4.28346 23.2891 5.53443 22.0396L7.44431 20.132C8.45337 19.1242 8.45337 17.4932 7.44431 16.4854C6.43526 15.4775 4.8023 15.4775 3.79325 16.4854H3.79644Z" fill="#3A3A8C"/>
<path d="M13.4347 14.1569L22.0705 5.53141C23.3215 4.28194 22.9555 2.17088 21.3543 1.41421L21.3098 1.39513C20.3326 0.93413 19.1707 1.13443 18.4068 1.90064L9.78365 10.5134C8.77459 11.5212 8.77459 13.1522 9.78365 14.1601C10.7927 15.1679 12.4257 15.1679 13.4347 14.1601V14.1569Z" fill="#00A896"/>
</svg>
